<?xml version="1.0" encoding="UTF-8"?>
<svg width="313px" height="87px" viewBox="0 0 313 87" version="1.1" xmlns="http://www.w3.org/2000/svg" xmlns:xlink="http://www.w3.org/1999/xlink">
    <!-- Generator: Sketch 62 (91390) - https://sketch.com -->
    <title>Group 3</title>
    <desc>Created with Sketch.</desc>
    <defs>
        <linearGradient x1="8.2967176%" y1="3.62661007%" x2="89.9109704%" y2="100%" id="linearGradient-1">
            <stop stop-color="#32936F" offset="0%"></stop>
            <stop stop-color="#1AA7B0" offset="48.9932135%"></stop>
            <stop stop-color="#2274A5" offset="100%"></stop>
        </linearGradient>
        <path d="M43.3344729,1.20230954 L73.2113889,18.456477 C75.987244,20.0595564 77.6972412,23.0221693 77.6972412,26.2283281 L77.6972412,60.736663 C77.6972412,63.9428218 75.987244,66.9054347 73.2113889,68.5085141 L43.3344729,85.7626816 C40.5586178,87.365761 37.1386234,87.365761 34.3627683,85.7626816 L4.48585231,68.5085141 C1.70999724,66.9054347 1.4343254e-13,63.9428218 1.4343254e-13,60.736663 L1.4343254e-13,26.2283281 C1.4343254e-13,23.0221693 1.70999724,20.0595564 4.48585231,18.456477 L34.3627683,1.20230954 C37.1386234,-0.400769848 40.5586178,-0.400769848 43.3344729,1.20230954 Z" id="path-2"></path>
    </defs>
    <g id="dashboard" stroke="none" stroke-width="1" fill="none" fill-rule="evenodd">
        <g id="station-dashboard-dark-mode-" transform="translate(-1321.000000, -862.000000)">
            <g id="Group-13-Copy-2" transform="translate(-2.000000, 3.000000)">
                <g id="Group-3" transform="translate(1323.000000, 859.000000)">
                    <g id="Group">
                        <mask id="mask-3" fill="white">
                            <use xlink:href="#path-2"></use>
                        </mask>
                        <use id="Polygon" fill="url(#linearGradient-1)" xlink:href="#path-2"></use>
                        <path d="M59.2626385,56.8660546 L59.2614915,70.6854906 L45.3508635,78.7577481 L45.3508635,65.0586919 L45.7897537,64.9398528 C50.3365234,63.6253745 54.3370631,61.4232877 57.7512901,58.3496304 C58.2803113,57.8733792 58.7841142,57.3787601 59.2626385,56.8660546 Z M17.9889271,65.1537005 C18.5852834,65.8298876 19.2237008,66.476057 19.9040546,67.0916078 L20.1507268,67.3123247 L20.8827167,67.9393753 C24.0916951,70.6003473 27.7811573,72.5298377 31.9196881,73.7174581 L32.3418918,73.8308632 L32.3418918,78.7555046 L17.9871644,70.42524 L17.9889271,65.1537005 Z M66.0755012,36.4647727 L72.49027,36.4625292 L72.4907919,59.7585167 C72.4448115,61.6656522 71.4801241,63.426356 69.9151114,64.4863323 L69.5706789,64.7025427 L62.4015882,68.8614925 L62.4029753,52.6409323 C64.6174524,48.8357341 65.8166885,44.3368872 65.98547,39.2154181 L66.0755012,36.4647727 Z M13.6625101,34.128257 C14.317962,34.128257 14.8493107,34.65825 14.8493107,35.3120295 L14.8493107,43.2626994 L11.5718432,43.6980512 L11.7117459,47.9644533 C11.868431,52.7426461 12.9181445,56.9785223 14.8490433,60.6150018 L14.8470678,68.6034854 L8.1265623,64.7025427 L8.00436775,64.6296325 C6.38419958,63.6360393 5.34954826,61.9159374 5.2187955,60.0236225 L5.20472826,59.6156926 L5.20248533,34.1270039 L13.6625101,34.128257 Z M35.6431864,18.6869605 C36.2986383,18.6869605 36.8299871,19.2179795 36.8299871,19.8730245 L36.8285455,48.3491753 L36.5965398,48.8704448 L36.2288828,49.764408 L35.8475945,49.3823405 L35.2717102,48.8442874 C30.4869282,44.5344602 24.6379844,42.5451446 17.9919332,42.9301292 L17.9894073,19.8730245 C17.9894073,19.2179795 18.5207561,18.6869605 19.176208,18.6869605 L35.6431864,18.6869605 Z M58.072448,27.6447187 C58.7278999,27.6447187 59.2592486,28.1762627 59.2592486,28.8319554 L59.2600108,34.2847653 C52.7976183,34.325314 47.1208563,36.4707145 42.4342193,40.6711369 L42.2351678,40.8516936 L41.6360177,41.4220302 C41.2126913,41.8400324 40.8068818,42.2737779 40.4186127,42.7231315 L40.4186127,28.8319554 C40.4186127,28.1762627 40.9500176,27.6447187 41.6054695,27.6447187 L58.072448,27.6447187 Z" id="Shape" fill-opacity="0.68" fill="#FFFFFF" mask="url(#mask-3)"></path>
                        <path d="M61.2778822,39.0601915 C61.0565313,45.7768142 58.8306915,51.039302 54.6003625,54.8476549 C50.8013816,58.2676868 46.1494553,60.403524 40.6445834,61.2551663 L40.6426921,81.3391554 C39.4763253,81.7173683 38.2191386,81.7171856 37.0528596,81.3386073 L37.0549157,70.0211117 C31.5316002,69.1805234 26.8678473,67.0393067 23.0636572,63.5974615 C18.8543747,59.7891086 16.6396086,54.5266208 16.419359,47.8099981 C22.6200787,46.9908262 27.853573,48.5026322 32.1198421,52.345416 C35.1284577,55.0553856 38.1052227,58.524296 38.7072831,60.3640999 L38.7768842,60.6155889 C39.1878681,53.353562 41.4547063,47.8750563 45.5773991,44.1800719 C49.8649995,40.337288 55.0984939,38.6306612 61.2778822,39.0601915 Z" id="Path" fill="#FFFFFF" mask="url(#mask-3)"></path>
                    </g>
                    <path d="M150.565494,27.2521141 C153.783556,27.2521141 156.678994,27.9540813 159.241577,29.3595775 C161.809002,30.7677297 163.823088,32.739249 165.274854,35.2651124 C166.725198,37.7885032 167.448787,40.6985162 167.448787,43.9849544 C167.448787,47.2708369 166.725457,50.1901216 165.275925,52.7327719 C163.824239,55.2792009 161.809817,57.2614263 159.241577,58.6700255 C156.678994,60.0755218 153.783556,60.7774889 150.565494,60.7774889 C148.171405,60.7774889 145.968572,60.3211468 143.963292,59.4072296 C142.539065,58.7581304 141.267775,57.8992829 140.151531,56.832652 L139.967781,56.6533577 L139.968093,71.3845958 C139.968093,71.6928037 139.737843,71.9480932 139.437371,71.9929938 L139.389368,71.998312 L139.342694,72 L133.51897,72 C133.189272,72 132.91916,71.7489527 132.895286,71.4305241 L132.893571,71.3845958 L132.893571,28.1659894 C132.893571,27.84156 133.148696,27.5757659 133.472296,27.5522731 L133.51897,27.5505852 L139.100038,27.5505852 C139.429737,27.5505852 139.699849,27.8016325 139.723723,28.170061 L139.725438,28.1659894 L139.725438,31.4780948 L139.829047,31.3714588 C140.851041,30.3348004 142.028263,29.4893887 143.35846,28.8370849 L143.559136,28.7406879 L143.75283,28.651376 C145.81837,27.7180727 148.091299,27.2521141 150.565494,27.2521141 Z M115.063422,27.2521141 C117.257455,27.2521141 119.450909,27.5168231 121.642766,28.0458558 C123.849724,28.5785331 125.672685,29.3001871 127.111281,30.2161653 C127.37067,30.381323 127.466626,30.7060276 127.344354,30.9798911 L127.321945,31.0250282 L124.83473,35.561788 C124.670136,35.8620127 124.291348,35.9707299 123.990806,35.8130623 L123.948435,35.7887181 L123.779886,35.6831045 C121.291696,34.1472543 118.37052,33.3778476 115.002758,33.3778476 C112.642843,33.3778476 110.872468,33.7524883 109.692487,34.4781892 C108.574287,35.1658945 108.045185,36.0282137 108.045185,37.1201205 C108.045185,37.9773657 108.331224,38.6184864 108.912104,39.0948164 C109.566836,39.6317057 110.384315,40.0293932 111.370993,40.2858596 L111.603665,40.3452274 C112.640944,40.6052249 114.055414,40.9007398 115.83666,41.229452 C118.450766,41.6715703 120.569991,42.1450565 122.198113,42.6520504 C123.897937,43.1813717 125.355429,44.0843848 126.561432,45.3558791 C127.811095,46.6734044 128.428216,48.4951762 128.428216,50.7900941 C128.428216,53.8598502 127.081884,56.3263735 124.427542,58.1313576 C121.824722,59.9013065 118.315444,60.7774889 113.91081,60.7774889 C111.223363,60.7774889 108.636744,60.4211501 106.152725,59.7082241 C103.654033,58.9910871 101.681771,58.0723326 100.236516,56.9429736 C100.01493,56.7698204 99.9406946,56.4737069 100.049466,56.2212124 L100.072013,56.1744215 L102.498565,51.6376617 C102.666553,51.3235855 103.066158,51.2167121 103.370614,51.394687 L103.411511,51.4207292 L103.57884,51.5364298 C104.904393,52.4377626 106.506872,53.1672475 108.388121,53.7226021 C110.352288,54.3024343 112.334118,54.5920613 114.335456,54.5920613 L114.644602,54.5902905 C119.227157,54.5371768 121.353693,53.2896912 121.353693,50.9094825 C121.353693,50.1338973 121.089763,49.5533658 120.550237,49.1161517 C119.937234,48.619394 119.161001,48.2509599 118.215122,48.013707 L117.991545,47.9588273 C116.993637,47.7189208 115.618028,47.4518419 113.874926,47.1598321 L113.340056,47.0756724 C110.963597,46.6929842 108.998209,46.2566623 107.440968,45.7647962 C105.701695,45.2154341 104.204891,44.2829625 102.959263,42.9727112 C101.668736,41.6152301 101.031326,39.7335627 101.031326,37.3588974 C101.031326,34.2946522 102.342019,31.8118937 104.929463,29.9659787 C107.47277,28.151552 110.855794,27.2521141 115.063422,27.2521141 Z M184.732962,27.2521141 C189.327546,27.2521141 192.885889,28.3742471 195.379006,30.6388044 C197.846075,32.8797011 199.089864,36.1786888 199.12813,40.4954441 L199.129041,40.701773 L199.129041,59.8039195 C199.129041,60.1283488 198.873916,60.3941429 198.550315,60.4176357 L198.503641,60.4193237 L192.983237,60.4193237 C192.653538,60.4193237 192.383427,60.1682764 192.359552,59.8498478 L192.357837,59.8039195 L192.357524,57.3749191 L192.277373,57.4557235 C191.486067,58.2328648 190.542794,58.8792993 189.450571,59.3940518 L189.25628,59.4835234 L189.078777,59.5617093 C187.194846,60.3740578 184.976728,60.7774889 182.427739,60.7774889 C178.694397,60.7774889 175.674817,59.8808804 173.391355,58.0749078 C171.079133,56.2461891 169.912237,53.8209225 169.912237,50.8497883 C169.912237,47.8841396 171.023723,45.4715197 173.231119,43.6614233 C175.388711,41.8921668 178.725431,41.0109105 183.232685,40.9824923 L183.459023,40.9817819 L192.054518,40.9817819 L192.054531,40.4669 L192.053537,40.3107467 C192.024651,38.0817884 191.361475,36.4075368 190.073424,35.2456942 C188.745957,34.0482984 186.752268,33.4375418 184.065661,33.4375418 C182.234397,33.4375418 180.442855,33.7345535 178.688265,34.329253 C176.937988,34.9224906 175.46848,35.7120939 174.276035,36.6962249 C173.987486,36.9343659 173.556077,36.8679567 173.352657,36.5644949 L173.327447,36.5235741 L170.900896,32.2255912 C170.760939,31.9776952 170.812026,31.6702594 171.018582,31.4789135 L171.059124,31.4444394 L171.241697,31.3020665 C172.925031,30.009226 174.915428,29.0168052 177.209092,28.3238651 C179.574896,27.6091308 182.083505,27.2521141 184.732962,27.2521141 Z M243.483022,27.2521141 C246.664087,27.2521141 249.512407,27.9657411 252.016671,29.3945858 C254.523462,30.8248718 256.485593,32.8283067 257.894915,35.3949157 C259.300818,37.9552975 260.002333,40.8813605 260.002333,44.1640371 L259.999768,44.3710498 C259.98951,44.8015929 259.948514,45.3313913 259.877181,45.9631291 C259.843841,46.2583867 259.601814,46.4855438 259.305473,46.5086372 L259.255606,46.5105733 L233.902835,46.5105733 L233.927009,46.6331058 C234.36695,48.7744176 235.400994,50.5306072 237.037622,51.9211354 L237.168082,52.0301546 L237.294502,52.1324477 C239.301737,53.7313817 241.801181,54.5323671 244.817625,54.5323671 C248.487672,54.5323671 251.412021,53.3286611 253.635771,50.9140861 C253.877363,50.6517623 254.289976,50.6455618 254.53999,50.8907304 L254.574564,50.9274639 L257.789745,54.6285048 C257.979311,54.8467175 257.989075,55.1625424 257.819885,55.3907426 L257.786065,55.4324581 L257.640891,55.5965269 C256.145709,57.2605641 254.304064,58.5353429 252.122805,59.4179731 C249.880958,60.3251199 247.383861,60.7774889 244.635634,60.7774889 C241.139513,60.7774889 238.025904,60.0680753 235.303528,58.6462159 C232.571244,57.2191823 230.452155,55.2169561 228.957291,52.6479332 C227.466107,50.0852365 226.721056,47.1939691 226.721056,43.9849544 C226.721056,40.8180755 227.444696,37.9491388 228.892867,35.3882247 C230.343426,32.8230854 232.346084,30.8213207 234.892614,29.3923763 C237.436024,27.9651834 240.303122,27.2521141 243.483022,27.2521141 Z M300.969774,20.6260571 C301.299473,20.6260571 301.569584,20.8771044 301.593459,21.1955329 L301.595174,21.2414613 L301.595174,27.5505852 L310.190669,27.5505852 C310.503883,27.5505852 310.763319,27.7771554 310.808949,28.0728251 L310.814354,28.170061 L310.816069,28.1659894 L310.816069,32.8818318 C310.816069,33.2062611 310.560944,33.4720552 310.237344,33.495548 L310.190669,33.497236 L301.595174,33.497236 L301.595156,50.0093743 L301.596298,50.1590833 C301.619624,51.6526402 302.003571,52.7679825 302.730917,53.5336375 C303.473316,54.315138 304.550231,54.7114497 306.004868,54.7114497 C307.645164,54.7114497 309.0227,54.25961 310.162056,53.3554601 C310.470655,53.1105678 310.92538,53.207763 311.106945,53.5456401 L311.128188,53.589121 L312.948101,57.7080213 C313.051742,57.942585 312.996647,58.2138492 312.814174,58.3911346 L312.77599,58.4252999 L312.641467,58.5360494 C311.749943,59.2531707 310.669062,59.8016877 309.403292,60.183385 C308.089926,60.5794354 306.733999,60.7774889 305.337567,60.7774889 C301.94893,60.7774889 299.283993,59.8681278 297.378145,58.035363 C295.503741,56.2328365 294.556082,53.6881418 294.521627,50.4375932 L294.520651,50.2528462 L294.520339,33.497236 L289.686311,33.497236 C289.373097,33.497236 289.113661,33.2706658 289.068031,32.9749961 L289.062626,32.9277601 L289.060911,32.8818318 L289.060911,28.1659894 C289.060911,27.84156 289.316036,27.5757659 289.639636,27.5522731 L289.686311,27.5505852 L294.520339,27.5505852 L294.520651,21.2414613 C294.520651,20.9332534 294.750902,20.6779638 295.051374,20.6330633 L295.099377,20.627745 L295.146051,20.6260571 L300.969774,20.6260571 Z M284.758785,27.5505852 C285.088484,27.5505852 285.358596,27.8016325 285.38247,28.170061 L285.384185,28.1659894 L285.384185,59.8039195 C285.384185,60.1283488 285.12906,60.3941429 284.80546,60.4176357 L284.758785,60.4193237 L278.935062,60.4193237 C278.605363,60.4193237 278.335252,60.1682764 278.311378,59.8498478 L278.309662,59.8039195 L278.309662,28.1659894 C278.309662,27.84156 278.564787,27.5757659 278.888388,27.5522731 L278.935062,27.5505852 L284.758785,27.5505852 Z M225.027473,27.2521141 C225.357172,27.2521141 225.627283,27.5031614 225.651158,27.82159 L225.652873,27.8675183 L225.652873,33.4190797 C225.652873,33.7719154 225.353163,34.0490887 225.001103,34.0339739 L224.954906,34.030327 L224.882833,34.0220238 L224.728822,34.0077132 C224.457203,33.9859676 224.111087,33.9747896 223.69287,33.9747896 C220.700728,33.9747896 218.388154,34.8385937 216.713391,36.560656 C215.06744,38.2530931 214.220331,40.6748773 214.188358,43.8566111 L214.187418,44.0446486 L214.187418,59.8039195 C214.187418,60.1283488 213.932293,60.3941429 213.608693,60.4176357 L213.562018,60.4193237 L207.738295,60.4193237 C207.408596,60.4193237 207.138485,60.1682764 207.114611,59.8498478 L207.112895,59.8039195 L207.112895,28.1659894 C207.112895,27.84156 207.36802,27.5757659 207.691621,27.5522731 L207.738295,27.5505852 L213.319363,27.5505852 C213.649062,27.5505852 213.919173,27.8016325 213.943048,28.170061 L213.944763,28.1659894 L213.944763,31.4784025 L214.018326,31.3924379 C214.880927,30.3984251 215.933526,29.5763863 217.172687,28.9286071 L217.35996,28.8327475 L217.53339,28.7475078 C219.606838,27.7481728 222.106413,27.2521141 225.027473,27.2521141 Z M183.703879,46.3314868 L183.552719,46.3320064 C179.025248,46.3635266 176.926096,47.7811102 176.926096,50.6110115 C176.926096,52.0100394 177.460902,53.0795319 178.553916,53.8775167 C179.688134,54.7055833 181.298234,55.1293092 183.398359,55.1293092 C185.511834,55.1293092 187.319815,54.6704925 188.834765,53.7574166 C190.289616,52.8805623 191.352706,51.653254 192.034462,50.0602102 L192.054205,50.0122232 L192.054205,46.3314868 L183.703879,46.3314868 Z M150.080183,33.497236 C148.166458,33.497236 146.444856,33.9371368 144.903985,34.8169324 C143.363803,35.6963349 142.14942,36.9193162 141.253405,38.4951101 C140.357156,40.0713143 139.90743,41.8979638 139.90743,43.9849544 C139.90743,46.0746827 140.348387,47.9140836 141.227319,49.5122382 C142.102469,51.1035172 143.314135,52.3330768 144.870777,53.2110381 C146.43281,54.0920403 148.1656,54.5323671 150.080183,54.5323671 C152.034879,54.5323671 153.776706,54.0921625 155.317045,53.2126706 C156.856056,52.3339372 158.069979,51.1020871 158.966097,49.5073495 C159.863504,47.910319 160.313601,46.072745 160.313601,43.9849544 C160.313601,41.8971639 159.863504,40.0595899 158.966097,38.4625594 C158.070848,36.8693679 156.858683,35.6486212 155.322081,34.7899303 C153.78065,33.9285406 152.036939,33.497236 150.080183,33.497236 Z M272.555984,40.3251456 C272.885683,40.3251456 273.155794,40.5761929 273.179668,40.8946215 L273.181384,40.9405498 L273.181384,45.8951691 C273.181384,46.2195984 272.926259,46.4853925 272.602658,46.5088853 L272.555984,46.5105733 L264.425786,46.5105733 C264.096087,46.5105733 263.825976,46.259526 263.802102,45.9410974 L263.800386,45.8951691 L263.800386,40.9405498 C263.800386,40.6161205 264.055511,40.3503264 264.379112,40.3268336 L264.425786,40.3251456 L272.555984,40.3251456 Z M243.483022,33.3181534 C240.843453,33.3181534 238.657984,34.1001673 236.895552,35.666599 C235.330896,37.0572497 234.341718,38.8267438 233.923851,40.9946684 L233.893141,41.1608645 L253.071027,41.1608645 L253.042347,41.0078194 C252.635185,38.9231247 251.685036,37.1939809 250.187157,35.8031115 L250.067766,35.6940085 C248.305487,34.1090666 246.121152,33.3181534 243.483022,33.3181534 Z M281.846924,14 C283.13516,14 284.23004,14.4054662 285.097564,15.2129811 C285.971368,16.0263413 286.41547,17.05389 286.41547,18.2567509 C286.41547,19.4930415 285.97654,20.5553178 285.110014,21.4079938 C284.242234,22.2619047 283.142132,22.6925844 281.846924,22.6925844 C280.555182,22.6925844 279.457634,22.2745177 278.589932,21.4437606 C277.720487,20.6113344 277.278378,19.5766382 277.278378,18.3761393 C277.278378,17.177937 277.718567,16.1360279 278.583833,15.2845906 C279.451614,14.4306797 280.551716,14 281.846924,14 Z" id="spare-it" fill="#2294A5" fill-rule="nonzero"></path>
                </g>
            </g>
        </g>
    </g>
</svg>